<?xml version="1.0" encoding="utf-8"?>
<svg xmlns="http://www.w3.org/2000/svg" fill="none" height="24" viewBox="0 0 24 24" width="24">
<path d="M18.7503 9.39074V8.7505C18.7503 5.02254 15.7282 2 11.9999 2C8.2715 2 5.24938 5.02254 5.24938 8.7505V9.39074C5.24938 9.39074 1.08401 15.1839 2.18541 16.5243C3.28681 17.8648 5.24938 18.0563 5.24938 18.0563V19.3746C5.24938 20.8245 6.42483 22 7.87472 22H16.1254C17.5753 22 18.7507 20.8245 18.7507 19.3746V18.0563C18.7507 18.0563 20.7137 17.8648 21.8147 16.5243C22.9157 15.1839 18.7507 9.39074 18.7507 9.39074H18.7503Z" fill="url(#paint0_linear_3332_36547)"/>
<ellipse cx="9.5" cy="9" fill="url(#paint1_linear_3332_36547)" rx="1.5" ry="2"/>
<ellipse cx="14.5" cy="9" fill="url(#paint2_linear_3332_36547)" rx="1.5" ry="2"/>
<defs>
<linearGradient gradientUnits="userSpaceOnUse" id="paint0_linear_3332_36547" x1="12" x2="12" y1="2" y2="22">
<stop stop-color="#D2D9E9"/>
<stop offset="1" stop-color="white"/>
</linearGradient>
<linearGradient gradientUnits="userSpaceOnUse" id="paint1_linear_3332_36547" x1="9.5" x2="9.5" y1="6.2" y2="11">
<stop stop-color="#16171D"/>
<stop offset="1" stop-color="#282933"/>
</linearGradient>
<linearGradient gradientUnits="userSpaceOnUse" id="paint2_linear_3332_36547" x1="14.5" x2="14.5" y1="6.2" y2="11">
<stop stop-color="#16171D"/>
<stop offset="1" stop-color="#282933"/>
</linearGradient>
</defs>
</svg>