<?xml version="1.0" encoding="utf-8"?>
<svg xmlns="http://www.w3.org/2000/svg" fill="none" height="227" viewBox="0 0 227 227" width="227">
<g clip-path="url(#clip0_144_3272)" id="Frame 120">
<g id="Group 153">
<g id="Group 155">
<path d="M28.6512 73.1321C28.6512 73.1321 27.4178 79.6392 30.3323 92.0516C31.9106 98.7717 30.7504 100.998 31.6498 100.636C40.4625 97.0755 49.7343 86.2658 49.7343 86.2658C49.7343 86.2658 62.3051 96.3816 56.7416 104.787C51.1781 113.193 33.5715 116.122 30.333 118.31C27.0945 120.499 13.4711 116.217 13.5733 105.741C13.7225 90.4823 14.6071 81.2499 14.3456 75.3192C13.9968 67.3984 12.5402 65.365 13.5733 62.7251C15.3794 58.1086 25.8987 52.7636 29.7637 51.6891C33.6279 50.6146 41.5682 58.5287 39.4563 62.7251C37.3443 66.9216 28.6512 73.1315 28.6512 73.1315V73.1321Z" fill="#F28654" id="Vector"/>
<path d="M77.4494 73.9197C77.4494 73.9197 69.3021 70.2013 58.4877 78.4514C48.5928 85.9995 48.5605 87.5702 48.5605 87.5702C48.5605 87.5702 53.794 94.4632 55.5772 97.4536C57.3612 100.443 75.5727 75.9331 77.4494 73.9197Z" fill="#11214B" id="Vector_2"/>
<path d="M31.6505 52.0247C31.8091 52.1509 37.4506 56.7461 37.7672 58.4243C38.0838 60.1031 35.2324 61.6765 35.2324 61.6765C35.2324 61.6765 31.3467 56.2205 30.3331 55.6963C29.3188 55.1714 34.071 60.837 34.3875 61.6765C34.7041 62.5159 31.7473 63.7747 31.2196 64.0892C30.6913 64.4037 26.0453 59.249 25.0949 59.3084C24.1445 59.3679 30.5024 64.0892 30.3331 64.5093C30.1637 64.9286 27.7351 66.3597 26.8902 66.536C26.0453 66.7123 21.6104 61.9917 21.6104 61.9917C21.6104 61.9917 24.3562 65.74 25.4122 66.5414C26.4681 67.3427 24.6728 67.867 23.6168 68.4967C22.5608 69.1264 20.66 68.8433 19.2874 67.2539C17.9149 65.6646 17.8093 65.9904 17.8093 67.2539C17.8093 68.1788 18.4432 71.2247 21.4 71.7496C24.3569 72.2744 26.4688 73.4284 23.512 74.8969C20.5551 76.3654 26.7854 91.0537 26.7854 95.4605C26.7854 99.8673 15.6624 92.1034 15.6624 92.1034C15.6624 92.1034 16.389 75.3209 13.7669 64.2188C13.5041 63.1075 15.487 58.9505 21.0834 56.0128C26.6805 53.0752 30.1287 50.812 31.6518 52.0261L31.6505 52.0247Z" fill="#FAA88A" id="Vector_3"/>
<path d="M39.1761 67.1201C39.1761 67.1201 39.7394 62.2238 34.5294 65.0219C29.3195 67.8193 30.1805 70.0577 31.6512 70.4778C33.1219 70.8978 39.3858 68.8844 39.1761 67.1207V67.1201Z" fill="#F28654" id="Vector_4"/>
<path d="M38.5315 66.2273C38.5315 66.2273 38.9247 62.8069 35.2856 64.7615C31.6459 66.7162 32.2474 68.2795 33.2745 68.5726C34.3016 68.8658 38.678 67.4594 38.5315 66.2273Z" fill="#FAA88A" id="Vector_5"/>
<path d="M73.5728 72.7905C73.5728 72.7905 58.1608 72.7251 52.7888 96.4814C48.7767 114.224 59.3236 136.961 54.1271 157.298C48.0662 181.019 50.7683 185.215 50.7683 185.215C50.7683 185.215 65.32 210.138 95.6553 206.918C127.472 203.541 110.409 173.957 111.404 147.21C112.4 120.463 128.121 96.4814 95.4752 77.9319C77.2448 67.573 73.5728 72.7905 73.5728 72.7905Z" fill="#172C64" id="Vector_6"/>
<path d="M20.3417 99.1486C20.3417 99.1486 27.2959 103.703 32.4729 106.707C37.6499 109.712 33.4562 115.081 37.4314 120.487C41.4066 125.893 43.1199 123.934 45.4658 117.026C47.6738 110.522 49.4806 104.026 48.9597 100.163C48.0603 93.4876 25.3768 82.905 22.2076 82.8636C16.9822 82.7955 2.74783 93.7728 0.67622 101.352C-1.39471 108.931 20.3417 99.1479 20.3417 99.1479V99.1486Z" fill="#0C1632" id="Vector_7"/>
<path d="M20.4323 95.7552C20.4323 95.7552 29.9945 100.581 34.217 103.031C38.4389 105.481 34.9961 109.358 38.2379 113.766C41.4798 118.175 44.3243 116.184 46.2373 110.55C48.038 105.246 48.7707 101.958 47.8216 98.922C46.8725 95.8861 25.8607 83.0697 21.3552 83.1271C18.7701 83.1605 3.98854 91.7832 2.2994 97.9643C0.610255 104.145 20.4323 95.7552 20.4323 95.7552Z" fill="#0C2159" id="Vector_8"/>
<path d="M30.93 93.645C31.1372 92.7731 30.5937 91.8995 29.7161 91.6937C28.8385 91.4879 27.9591 92.0279 27.752 92.8998C27.5449 93.7717 28.0884 94.6453 28.966 94.8511C29.8436 95.0569 30.7229 94.5169 30.93 93.645Z" fill="#1741B1" id="Vector_9"/>
<path d="M41.1263 102.11C41.6371 101.603 41.6371 100.78 41.1263 100.272C40.6155 99.765 39.7873 99.765 39.2765 100.272C38.7657 100.78 38.7657 101.603 39.2765 102.11C39.7873 102.618 40.6155 102.618 41.1263 102.11Z" fill="#1741B1" id="Vector_10"/>
<path d="M42.1263 105.778C42.6371 105.271 42.6371 104.448 42.1263 103.94C41.6155 103.433 40.7873 103.433 40.2765 103.94C39.7657 104.448 39.7657 105.271 40.2765 105.778C40.7873 106.286 41.6155 106.286 42.1263 105.778Z" fill="#1741B1" id="Vector_11"/>
<path d="M45.0267 101.14C45.5375 100.632 45.5375 99.8093 45.0267 99.3018C44.5159 98.7943 43.6877 98.7943 43.1769 99.3018C42.6661 99.8093 42.6661 100.632 43.1769 101.14C43.6877 101.647 44.5159 101.647 45.0267 101.14Z" fill="#1741B1" id="Vector_12"/>
<path d="M46.097 104.798C46.6078 104.29 46.6078 103.467 46.097 102.96C45.5862 102.452 44.758 102.452 44.2472 102.96C43.7364 103.467 43.7364 104.29 44.2472 104.798C44.758 105.305 45.5862 105.305 46.097 104.798Z" fill="#1741B1" id="Vector_13"/>
<path d="M35.2173 97.5903C35.8549 96.9569 35.8549 95.9298 35.2173 95.2964C34.5797 94.6629 33.546 94.6629 32.9084 95.2964C32.2708 95.9298 32.2708 96.9569 32.9084 97.5903C33.546 98.2238 34.5797 98.2238 35.2173 97.5903Z" fill="#1741B1" id="Vector_14"/>
<path d="M94.8145 93.3785C94.8145 93.3785 84.0492 107.517 79.8898 120.167C75.7298 132.816 82.5651 182.416 89.3236 195.006C96.0822 207.596 112.695 164.691 112.695 164.691L112.063 159.887C112.063 159.887 107.346 174.863 94.6741 185.494C91.767 187.933 81.6865 135.511 82.2498 125.114C82.8131 114.717 100.126 93.1688 100.126 93.1688C100.126 93.1688 97.8487 76.2514 95.5338 79.3066C94.2519 80.9981 92.9211 83.4109 92.9211 83.4109L94.8152 93.3785H94.8145Z" fill="#1741B1" id="Vector_15"/>
<path d="M73.6403 79.306C73.6403 79.306 64.4021 84.1796 62.2901 85.7363C60.1782 87.2929 56.9679 95.9836 56.7428 105.767C56.5176 115.55 61.1636 142.075 60.4598 149.865C59.7561 157.656 52.0625 166.505 52.0625 166.505C52.0625 166.505 52.857 160.873 53.5608 159.475C54.2645 158.076 59.4744 148.443 57.503 141.229C55.5315 134.015 53.8424 103.243 54.8278 95.2664C55.8132 87.2896 60.6917 83.411 60.6917 83.411L74.502 76.7891L73.6403 79.3067V79.306Z" fill="#1741B1" id="Vector_16"/>
<path d="M55.5898 143.246C55.5898 143.246 80.1708 165.07 88.9002 164.511C97.6296 163.951 108.908 131.102 108.908 131.102C108.908 131.102 104.646 124.427 101.069 125.171C97.4911 125.916 81.2705 148.065 73.9621 144.817C66.6536 141.569 55.5898 134.295 55.5898 134.295C55.5898 134.295 55.604 140.153 55.5898 143.246Z" fill="#0C1632" id="Vector_17" opacity="0.5"/>
<path d="M109.805 115.63C109.805 115.63 98.2094 150.863 89.6454 156.501C81.0814 162.139 58.5767 140.305 49.2606 130.792C45.7714 127.23 35.2493 126.933 35.3213 119.474C35.3401 117.485 36.025 114.998 37.9965 112.724C38.5416 112.096 41.0588 110.731 36.9405 110.101C33.9346 109.642 33.7686 107.345 34.762 107.065C47.0821 103.59 50.6687 108.842 54.0477 112.121C57.7251 115.688 53.2028 121.338 61.0879 124.649C68.9731 127.961 81.6769 134.962 83.9294 131.102C86.1824 127.242 90.0924 112.99 94.5986 107.069C99.1041 101.148 109.242 107.729 109.805 115.629V115.63Z" fill="#F28654" id="Vector_18"/>
<path d="M84.6019 133.463C84.6019 133.463 84.8096 139.29 83.9653 137.49C83.9653 137.49 82.9134 134.862 81.153 134.443C79.3926 134.023 59.4341 125.729 57.3222 122.585C55.2102 119.44 56.976 113.601 53.2079 110.447C46.4493 104.789 40.9584 105.411 37.1701 106.473C34.1084 107.332 36.7305 108.739 38.3141 108.844C39.8984 108.949 43.7741 108.558 45.6749 110.726C46.5629 111.74 41.3146 111.068 39.9024 111.636C38.4902 112.204 36.3083 117.972 36.4139 118.916C36.5194 119.861 38.6313 121.015 42.011 120.28C45.3899 119.545 51.4092 122.885 56.4786 128.612C61.5474 134.339 81.6114 149.657 85.5187 149.866C89.426 150.076 98.7865 132.595 100.092 129.94C100.814 128.472 88.8741 121.65 88.8741 121.65L84.6039 133.464L84.6019 133.463Z" fill="#FAA88A" id="Vector_19"/>
<path d="M88.6621 119.225C88.6621 119.225 94.3809 94.885 105.248 93.311C116.116 91.737 117.982 114.125 108.908 131.102C108.908 131.102 94.5267 118.464 88.6621 119.225Z" fill="#113184" id="Vector_20"/>
<path d="M99.889 80.6658C99.889 80.6658 82.679 98.6737 73.9624 96.4806C65.2458 94.2876 69.9234 80.3139 73.1464 77.439C76.3694 74.5641 91.7653 73.7394 99.8884 80.6658H99.889Z" fill="#1741B1" id="Vector_21"/>
<path d="M71.6074 85.2437L75.912 72.6697L92.7557 61.4727C92.7557 61.4727 94.0274 72.9061 95.4773 77.9319C96.9264 82.9578 69.64 97.6968 71.6074 85.2437Z" fill="#F28654" id="Vector_22"/>
<path d="M70.1135 45.8227C70.4174 39.1473 66.4445 33.5462 61.2396 33.3123C56.0348 33.0784 51.5691 38.3003 51.2652 44.9756C50.9612 51.651 54.9342 57.2521 60.139 57.486C65.3438 57.7199 69.8096 52.4981 70.1135 45.8227Z" fill="#0071BC" id="Vector_23"/>
<path d="M72.7893 45.8227C73.0932 39.1473 69.1202 33.5462 63.9154 33.3123C58.7106 33.0784 54.2449 38.3003 53.9409 44.9756C53.637 51.651 57.61 57.2521 62.8148 57.486C68.0196 57.7199 72.4853 52.4981 72.7893 45.8227Z" fill="#00395E" id="Vector_24"/>
<path d="M56.7326 22.5454C56.7326 22.5454 52.791 26.287 52.791 33.7804C52.791 41.2738 56.7326 45.4008 56.7326 45.4008C56.7326 45.4008 57.89 31.3977 60.6909 28.9215C63.4918 26.4453 60.9544 20.5827 56.7326 22.5454Z" fill="#0C1632" id="Vector_25"/>
<path d="M91.659 62.9714C91.659 62.9714 89.7998 79.8086 73.9609 78.3628L75.9102 72.6685L91.659 62.9707V62.9714Z" fill="#D35F3C" id="Vector_26"/>
<path d="M56.9393 40.2776C56.9393 40.2776 54.256 68.814 68.692 73.1527C83.128 77.4907 97.8195 59.2224 97.8195 47.7202C97.8195 36.218 100.374 26.0688 91.4319 26.0688C82.4895 26.0688 54.5558 17.5964 56.9393 40.2776Z" fill="#F28654" id="Vector_27"/>
<path d="M86.2517 29.999C86.2517 29.999 89.0755 59.5085 75.0333 70.8217C67.1193 77.1978 56.3707 66.6639 56.7418 52.3496C57.0792 39.3229 55.6025 29.5716 61.4099 27.3332C67.2181 25.0947 86.3236 26.7582 86.2517 29.999Z" fill="#FAA88A" id="Vector_28"/>
<path d="M50.0402 20.4434C50.0402 20.4434 53.1315 26.3027 59.1836 28.9218C68.2034 32.8251 78.6992 28.4043 81.5149 32.3209C84.3305 36.2376 80.9429 40.5282 83.6786 44.4188C86.4143 48.3101 83.489 53.4187 83.1717 54.5821C82.8552 55.746 89.4 53.8708 90.5259 47.852C91.6524 41.8331 95.0314 38.4974 97.0028 43.942C98.9743 49.3866 95.2767 57.1992 95.2767 57.1992C95.2767 57.1992 103.535 52.803 107.023 39.3782C108.89 32.192 108.901 26.3067 103.198 22.545C101.317 21.3042 107.258 14.498 98.1576 11.2952C95.5012 10.3603 100.43 15.065 99.8898 18.1308C99.8898 18.1308 97.2697 15.4416 94.4688 13.5531C88.6902 9.65578 76.721 11.537 70.1768 10.005C57.3311 6.99794 44.7543 13.7267 50.0402 20.4421V20.4434Z" fill="#0C1632" id="Vector_29"/>
<path d="M54.7613 49.2861C54.7613 49.2861 47.4395 56.2359 47.4395 60.2254C47.4395 64.2148 54.7613 71.0845 54.7613 71.0845C54.7613 71.0845 58.4206 70.4714 56.7314 69.6507C55.0423 68.8306 48.1432 61.8361 49.6919 58.6186C51.2405 55.4012 55.746 50.3653 55.746 50.3653C55.746 50.3653 56.4498 48.7659 54.7606 49.2855L54.7613 49.2861Z" fill="#00395E" id="Vector_30"/>
<path d="M71.252 10.4017C71.252 10.4017 85.0528 14.6903 89.4212 22.6638C93.7902 30.6374 91.1769 40.8073 91.1769 40.8073C91.1769 40.8073 96.6308 40.9028 97.0946 38.9889C98.1149 34.7784 99.4808 23.5119 95.1796 18.2971C89.6269 11.5663 83.5814 9.66844 80.2394 9.51551C76.8975 9.36258 73.9036 9.04004 71.252 10.4017Z" fill="#00395E" id="Vector_31"/>
<path d="M71.4434 10.3083C71.4434 10.3083 85.9453 14.1768 90.3143 22.1504C94.6834 30.1239 92.07 40.2938 92.07 40.2938C92.07 40.2938 97.5239 40.3893 97.9877 38.4754C99.0081 34.2649 100.374 22.9985 96.0727 17.7836C90.52 11.0529 84.4988 9.04012 81.1561 8.88652C77.8134 8.73293 73.6279 8.56865 71.4434 10.3076V10.3083Z" fill="#0071BC" id="Vector_32"/>
<path d="M24.9813 106.563C24.9813 106.563 23.4286 104.147 21.9404 102.051C20.8502 100.516 14.5581 103.625 14.5581 103.625C14.5581 103.625 13.7434 106.772 16.8811 111.567C19.0259 114.844 25.7677 117.083 25.7677 117.083L24.9806 106.563L24.9813 106.563Z" fill="#FAA88A" id="Vector_33"/>
<path d="M22.5138 86.7107L21.2559 85.8457L17.8462 90.7398L19.1041 91.6048L22.5138 86.7107Z" fill="#1741B1" id="Vector_34"/>
<path d="M23.0807 89.7373L18.1602 86.3535L17.1361 87.8234L22.0566 91.2072L23.0807 89.7373Z" fill="#1741B1" id="Vector_35"/>
<path d="M56.7332 74.2516C56.7332 74.2516 52.5846 71.4442 52.3097 69.8428C52.0347 68.2414 53.9471 65.3412 55.9535 66.3856C57.9599 67.43 60.6001 69.6511 61.2333 70.534C61.8671 71.4168 60.6801 75.9331 56.7325 74.2523L56.7332 74.2516Z" fill="#00395E" id="Vector_36"/>
<path d="M103.38 48.7613C104.194 42.4664 100.874 36.8556 95.9658 36.2292C91.0574 35.6027 86.4185 40.1979 85.6046 46.4928C84.7907 52.7876 88.11 58.3985 93.0184 59.0249C97.9269 59.6513 102.566 55.0562 103.38 48.7613Z" fill="#00395E" id="Vector_37"/>
<path d="M105.7 49.0582C106.514 42.7633 103.195 37.1525 98.2862 36.5261C93.3777 35.8996 88.7388 40.4948 87.9249 46.7896C87.111 53.0845 90.4303 58.6953 95.3387 59.3218C100.247 59.9482 104.886 55.353 105.7 49.0582Z" fill="#0071BC" id="Vector_38"/>
<path d="M105.726 48.8488C106.328 44.1927 103.873 40.0427 100.243 39.5794C96.6131 39.1161 93.1823 42.515 92.5803 47.1711C91.9783 51.8271 94.433 55.9771 98.0631 56.4404C101.693 56.9037 105.124 53.5048 105.726 48.8488Z" fill="#338DC9" id="Vector_39"/>
<path d="M62.4321 55.9512L73.623 58.7933C73.623 58.7933 72.0245 65.868 67.3584 63.8626C61.7969 61.4719 62.4321 55.9518 62.4321 55.9518V55.9512Z" fill="white" id="Vector_40"/>
<path d="M64.3892 48.0159C65.1543 48.0159 65.7746 46.9625 65.7746 45.6632C65.7746 44.3639 65.1543 43.3105 64.3892 43.3105C63.6241 43.3105 63.0039 44.3639 63.0039 45.6632C63.0039 46.9625 63.6241 48.0159 64.3892 48.0159Z" fill="#0C1632" id="Vector_41"/>
<path d="M74.1985 50.3027C75.0676 50.3027 75.7721 49.1065 75.7721 47.6309C75.7721 46.1552 75.0676 44.959 74.1985 44.959C73.3295 44.959 72.625 46.1552 72.625 47.6309C72.625 49.1065 73.3295 50.3027 74.1985 50.3027Z" fill="#0C1632" id="Vector_42"/>
<path d="M58.6982 40.81C58.6982 40.81 60.8464 39.1031 62.7621 39.4176C64.6778 39.7321 66.0765 40.8514 66.252 41.3642C66.4274 41.8771 66.0288 42.6698 65.0098 42.1569C63.9908 41.644 62.9516 40.9028 61.4453 41.0844C59.9397 41.2661 58.4549 41.4671 58.6982 40.8093V40.81Z" fill="#0C1632" id="Vector_43"/>
<path d="M70.4554 41.8297C70.4554 41.8297 69.6131 43.3203 71.0186 43.3096C72.4241 43.2989 74.487 42.372 75.7715 43.1353C76.7918 43.7416 77.8243 44.4175 78.2464 44.0675C78.6685 43.7176 77.3786 41.9119 75.9469 41.419C74.8399 41.0384 70.4453 41.1379 70.4554 41.8291V41.8297Z" fill="#0C1632" id="Vector_44"/>
<path d="M68.6725 46.2129C68.6725 46.2129 67.0009 47.9919 65.3198 50.0133C64.8291 50.603 65.1907 52.3914 67.0419 53.8251C67.0419 53.8251 68.3143 54.2332 67.3585 52.1817C66.767 50.9115 66.5129 49.9773 67.0768 49.5152C68.9071 48.0153 68.6725 46.2129 68.6725 46.2129Z" fill="#F28654" id="Vector_45"/>
<path d="M72.7648 27.3277C72.7648 27.3277 51.1279 25.6047 49.2976 17.9331C47.4673 10.2614 60.5596 13.6197 63.9978 15.0515C72.6236 18.6436 79.0549 29.8453 72.7654 27.3277H72.7648Z" fill="#142344" id="Vector_46"/>
<path d="M75.2878 8.94935C75.2878 8.94935 81.4992 8.78373 84.0232 9.36939C87.0694 10.0753 94.9949 14.0353 97.1599 20.3848C99.8896 28.3883 97.0309 30.6041 95.6583 29.9744C94.2858 29.3446 96.5032 24.5178 91.8566 18.3286C86.8906 11.714 78.8879 9.7467 75.2871 8.94935H75.2878Z" fill="#338DC9" id="Vector_47"/>
<path d="M88.6621 119.227C88.6621 119.227 89.8646 113.87 90.5374 112.888C91.3077 111.762 100.618 117.241 103.896 120.833C107.174 124.424 110.952 126.76 110.952 126.76L108.908 132.751C108.908 132.751 92.9398 120.791 88.6621 119.227Z" fill="#1741B1" id="Vector_48"/>
<path d="M53.1077 95.1495L47.0684 89.1339C47.0684 89.1339 49.4834 86.1776 49.8961 85.7509C50.3089 85.3241 53.8632 92.4442 53.8632 92.4442C53.8632 92.4442 53.2959 94.3795 53.1077 95.1502V95.1495Z" fill="#1741B1" id="Vector_49"/>
<path d="M50.327 177.387C50.327 177.387 64.8632 200.364 86.7185 202.652C108.573 204.94 114.699 191.9 114.699 191.9C114.699 191.9 114.812 206.654 93.9906 207.203C67.8496 207.891 55.676 193.437 51.3634 186.142C51.3634 186.142 49.4794 183.883 50.3263 177.387L50.327 177.387Z" fill="#1741B1" id="Vector_50"/>
</g>
<g id="Group 154">
<path d="M202.792 71.6149C202.792 71.6149 204.026 78.122 201.111 90.5344C199.533 97.2544 200.693 99.4809 199.794 99.1183C190.981 95.5582 181.709 84.7485 181.709 84.7485C181.709 84.7485 173.118 96.9653 178.681 105.371C184.245 113.776 197.872 114.605 201.111 116.793C204.349 118.981 217.973 114.7 217.87 104.224C217.522 68.5858 219.677 65.8244 217.87 61.2086C216.064 56.5921 206.475 50.3481 202.61 49.2736C198.746 48.1992 189.876 57.0121 191.987 61.2086C194.099 65.405 202.792 71.6149 202.792 71.6149Z" fill="#F28654" id="Vector_51"/>
<path d="M199.871 110.384C199.871 110.384 200.575 107.848 199.871 105.372C199.168 102.897 203.395 102.999 204.801 104.137C206.207 105.275 204.801 108.352 204.801 108.352L199.871 110.383V110.384Z" fill="#F28654" id="Vector_52"/>
<path d="M173.581 77.7349C173.581 77.7349 168.921 71.2665 169.712 67.4841C170.503 63.7017 175.549 58.0581 175.672 33.0911C175.704 26.6608 180.655 20.4276 172.382 17.6315C164.11 14.8354 158.401 13.2467 152.173 13.248C145.945 13.2494 141.717 15.8852 141.717 15.8852L161.575 21.9702C161.575 21.9702 170.764 37.2334 169.444 44.7095C168.123 52.1855 150.171 59.4612 150.382 70.0919C150.593 80.7226 173.581 77.7349 173.581 77.7349Z" fill="#B22D0F" id="Vector_53"/>
<path d="M166.5 74.7441C166.5 74.7441 173.933 76.3161 184.842 85.7588C188.9 89.2708 184.842 99.8354 184.842 99.8354L166.5 74.7448V74.7441Z" fill="#4F002F" id="Vector_54"/>
<path d="M171.886 77.7355C171.886 77.7355 187.815 95.539 187.815 105.43C187.815 115.322 182.837 128.18 179.85 138.071C176.864 147.961 180.58 163.607 184.841 178.428C191.16 200.416 147.755 209.915 133.909 204.016C109.979 193.822 124.22 177.778 128.203 148.498C132.185 119.219 111.307 116.793 120.836 95.5944C126.99 81.9045 147.894 61.2087 171.887 77.7355H171.886Z" fill="#770046" id="Vector_55"/>
<path d="M127.039 89.502C127.039 89.502 159.998 109.696 161.676 115.377C163.354 121.058 171.392 116.112 174.349 112.755C177.305 109.398 181.673 111.088 184.909 106.88C190.717 99.3254 174.032 78.6569 171.075 78.0499C166.473 77.1043 170.125 98.5574 164.211 97.6826C158.297 96.8077 134.891 85.2248 131.092 85.0571C127.292 84.8902 127.04 89.5027 127.04 89.5027L127.039 89.502Z" fill="#9E005D" id="Vector_56"/>
<path d="M128.56 88.5868C128.56 88.5868 128.775 87.3987 130.079 88.0552C136.773 91.4276 158.311 104.89 163.968 124.504C170.726 147.939 147.267 193.822 147.267 193.822C147.267 193.822 124.034 169.622 128.166 150.203C128.166 150.203 136.947 178.257 144.225 181.512C151.502 184.767 167.521 142.747 160.675 127.437C153.83 112.127 143.032 97.9273 128.56 88.5861V88.5868Z" fill="#F8449D" id="Vector_57"/>
<path d="M137.61 61.0016C137.61 61.0016 140.648 73.8768 133.737 79.4176C129.742 82.621 158.82 91.7619 162.699 89.5741C166.578 87.3864 166.695 77.9825 164.065 74.7436C161.434 71.5048 153.979 72.5406 154.533 61.208C154.903 53.6425 137.61 61.001 137.61 61.001L137.61 61.0016Z" fill="#F28654" id="Vector_58"/>
<path d="M155.775 68.3812C155.775 68.3812 156.941 70.5462 159.018 71.6154C160.28 72.2645 149.053 76.2119 145.248 65.0195L155.775 68.3819V68.3812Z" fill="#D35F3C" id="Vector_59"/>
<path d="M130.566 81.5809C130.566 81.5809 154.864 91.8984 161.714 91.9839C165.856 92.036 168.041 75.7931 166.5 74.7446C164.015 73.0524 160.61 72.4688 160.61 72.4688C160.61 72.4688 165.446 77.5754 161.715 88.0672C161.032 89.9878 136.653 81.6303 135.542 77.9086C134.866 75.6388 130.567 81.5809 130.567 81.5809H130.566Z" fill="#E14889" id="Vector_60"/>
<path d="M171.37 38.2841C171.37 38.2841 171.545 71.6588 157.985 69.7075C144.425 67.7568 137.401 60.0491 137.401 60.0491C137.401 60.0491 128.53 32.7928 139.078 21.8676C149.626 10.9417 172.507 24.6082 172.507 24.6082L171.371 38.2841H171.37Z" fill="#F28654" id="Vector_61"/>
<path d="M171.887 77.735C171.887 77.735 180.581 95.2955 181.183 109.546C181.627 120.073 173.716 145.561 175.67 158.15C177.624 170.74 183.415 172.767 183.415 172.767L180.581 163.605C180.581 163.605 176.779 145.14 180.159 131.291C183.538 117.442 187.142 109.948 180.581 92.8921C177.285 84.3242 171.887 77.7344 171.887 77.7344V77.735Z" fill="#F8449D" id="Vector_62"/>
<path d="M121.957 93.3311C121.957 93.3311 118.573 89.9667 118.691 85.5492C118.823 80.6215 123.536 70.891 118.691 65.019C107.929 51.9762 108.973 36.7544 112.153 29.1047C119.182 12.1993 137.611 6.95978 161.658 15.2559C178.527 21.0757 173.528 28.6593 172.242 27.7731C166.898 24.0909 162.829 26.4121 161.658 26.1437C140.666 21.3409 138.729 48.903 143.623 58.9006C147.174 66.1549 152.183 81.6299 130.39 87.962C128.341 88.557 124.738 89.9086 121.958 93.3304L121.957 93.3311Z" fill="#B22D0F" id="Vector_63"/>
<path d="M134.447 57.8461C134.447 57.8461 119.756 38.1273 126.514 24.6978C133.272 11.2684 146.437 7.4118 155.237 9.78583C160.679 11.2537 161.657 14.4257 161.657 14.4257C161.657 14.4257 130.566 18.9507 136.229 45.8911C136.229 45.8911 139.001 59.9397 134.447 57.8461Z" fill="#B2306F" id="Vector_64"/>
<path d="M163.344 25.9369C163.344 25.9369 165.184 20.9204 168.87 20.9204C172.556 20.9204 177.097 25.5369 175.672 30.7825C174.247 36.0281 169.708 57.011 172.505 63.9354C175.303 70.8599 172.505 75.3361 172.505 75.3361C172.505 75.3361 176.789 71.2792 175.94 62.6766C175.091 54.0734 175.963 45.3052 178.893 35.6087C181.823 25.9122 183.328 20.3034 178.471 18.4028C173.613 16.5023 166.655 16.7053 162.926 19.2569C160.391 20.9906 163.344 25.9369 163.344 25.9369Z" fill="#F15A24" id="Vector_65"/>
<path d="M138.66 61.6143C143.228 57.0757 143.228 49.7172 138.66 45.1787C134.092 40.6401 126.685 40.6401 122.117 45.1787C117.549 49.7172 117.549 57.0757 122.117 61.6143C126.685 66.1529 134.092 66.1529 138.66 61.6143Z" fill="#771E48" id="Vector_66"/>
<path d="M161.574 21.9694C161.574 21.9694 155.255 18.4268 152.713 19.2542C150.17 20.0809 142.56 22.7461 138.973 29.3139C135.386 35.8817 144.665 48.1566 140.178 57.7909C132.006 75.3367 137.638 79.2534 141.716 83.2662C141.716 83.2662 138.418 71.2798 141.957 66.2439C145.497 61.2081 147.553 52.3577 145.101 40.2311C143.313 31.3888 149.488 24.9071 153.208 23.6483C156.928 22.3895 160.285 24.1598 161.226 26.0484C162.166 27.9369 162.772 23.4386 161.574 21.9701V21.9694Z" fill="#F15A24" id="Vector_67"/>
<path d="M129.417 30.1539C129.417 30.1539 121.097 19.2848 120.611 13.2486C120.124 7.21233 135.776 13.0876 139.355 15.3261C142.935 17.5646 133.923 22.3206 129.417 30.1539Z" fill="#F8449D" id="Vector_68"/>
<path d="M146.875 11.7794C146.875 11.7794 154.362 0.315931 157.751 0.00807516C161.897 -0.368564 158.898 12.5554 158.898 12.5554C158.898 12.5554 154.282 9.14292 146.875 11.7801V11.7794Z" fill="#F8449D" id="Vector_69"/>
<path d="M132.428 40.2314C132.428 40.2314 132.012 31.2722 133.91 25.9565C135.807 20.6408 146.543 11.4225 160.39 12.5544C160.39 12.5544 156.998 9.14799 149.747 9.17003C148.648 9.17337 142.587 9.50259 137.179 12.8603C131.77 16.2173 128.196 22.0532 126.515 27.9152C124.302 35.6303 126.515 41.1697 126.515 41.1697C126.515 41.1697 131.302 39.5383 132.428 40.2314H132.428Z" fill="#F8449D" id="Vector_70"/>
<path d="M129.894 25.1704C129.894 25.1704 122.818 17.6323 124.086 13.2489C124.699 11.1286 134.668 15.7985 136.452 16.839C138.236 17.8794 131.9 20.2921 129.894 25.1711V25.1704Z" fill="#FF7EBD" id="Vector_71"/>
<path d="M152.141 9.95479C152.141 9.95479 156.03 2.94555 157.702 1.82632C159.374 0.707086 158.476 8.81552 158.054 10.4636C157.632 12.1111 156.857 9.12938 152.141 9.95479Z" fill="#FF7EBD" id="Vector_72"/>
<path d="M149.609 30.1532C149.609 30.1532 147.101 33.8875 148.197 46.0869C149.609 61.7855 156.244 66.205 158.898 67.363C163.789 69.496 167.84 62.6083 169.811 53.9903C171.782 45.3723 168.976 42.7432 169.71 39.2459C170.444 35.7487 172.081 27.7751 169.925 26.9357C167.769 26.0963 151.442 28.3347 149.609 30.1532Z" fill="#FAA88A" id="Vector_73"/>
<path d="M186.596 99.836C186.596 99.836 189.414 92.2565 188.096 89.5325C186.778 86.8086 183.416 84.5527 183.416 84.5527C183.416 84.5527 185.02 87.0263 184.842 89.5753C184.666 92.1243 183.938 94.2973 183.938 94.2973C183.938 94.2973 186.225 98.7949 186.595 99.836H186.596Z" fill="#F8449D" id="Vector_74"/>
<path d="M126.516 127.438C126.516 127.438 138.761 150.297 143.199 156.112C147.636 161.928 175.667 141.699 175.667 141.699C175.667 141.699 156.431 147.02 151.189 143.983C145.947 140.945 134.449 126.961 134.449 126.961L126.516 127.438Z" fill="#4F002F" id="Vector_75" opacity="0.51"/>
<path d="M199.794 50.5078C199.635 50.634 193.993 55.2292 193.677 56.9074C193.36 58.5862 196.212 60.1595 196.212 60.1595C196.212 60.1595 200.097 54.7036 201.111 54.1794C202.125 53.6545 197.373 59.3201 197.057 60.1595C196.74 60.999 199.697 62.2578 200.224 62.5723C200.752 62.8868 205.399 57.7321 206.349 57.7915C207.3 57.851 200.942 62.5723 201.111 62.9924C201.28 63.4117 203.709 64.8428 204.554 65.0191C205.399 65.1954 209.834 60.4741 209.834 60.4741C209.834 60.4741 207.088 64.2224 206.032 65.0238C204.976 65.8252 206.771 66.3494 207.827 66.9791C208.883 67.6089 210.784 67.3257 212.157 65.7363C213.529 64.1463 213.635 64.4729 213.635 65.7363C213.635 66.6612 213.001 69.7071 210.044 70.232C207.087 70.7569 204.975 71.9108 207.932 73.3793C210.889 74.8478 204.659 89.5361 204.659 93.9429C204.659 98.3497 215.782 90.5859 215.782 90.5859C215.782 90.5859 216.75 65.6776 217.677 62.7012C218.017 61.6107 215.957 57.4329 210.361 54.4953C204.764 51.5576 201.315 49.2944 199.792 50.5085L199.794 50.5078Z" fill="#FAA88A" id="Vector_76"/>
<path d="M192.268 65.6025C192.268 65.6025 191.705 60.7062 196.914 63.5043C202.124 66.3017 201.263 68.5402 199.793 68.9602C198.323 69.3796 192.058 67.3668 192.268 65.6032V65.6025Z" fill="#F28654" id="Vector_77"/>
<path d="M192.913 64.7098C192.913 64.7098 192.52 61.2893 196.159 63.2439C199.798 65.1986 199.197 66.7619 198.17 67.0551C197.143 67.3482 192.766 65.9418 192.913 64.7098Z" fill="#FAA88A" id="Vector_78"/>
<path d="M188.994 91.9847C187.746 91.4818 193.679 96.4536 199.792 99.1188C201.436 99.8353 198.744 104.078 194.415 103.365C190.085 102.651 188.445 98.067 188.445 98.067L188.994 91.9847Z" fill="#FAA88A" id="Vector_79"/>
<g id="Group">
<path d="M226.954 89.5744L199.793 65.8281C199.793 65.8281 165.514 82.9198 171.888 97.6962C173.316 101.008 207.053 111.701 207.053 111.701L226.954 89.5744Z" fill="url(#paint0_linear_144_3272)" id="Vector_80" opacity="0.33"/>
</g>
<path d="M199.861 114.139C199.861 114.139 203.17 100.78 206.171 98.4891C212.123 93.9487 223.893 89.1766 225.675 88.2283C227.458 87.28 224.078 102.388 221.262 105.186C218.446 107.983 198.987 119.236 199.861 114.138V114.139Z" fill="#29ABE2" id="Vector_81"/>
<path d="M201.138 114.539C201.138 114.539 204.447 101.18 207.449 98.8894C213.4 94.3491 225.17 89.577 226.952 88.6287C228.735 87.6804 225.355 102.788 222.54 105.586C219.724 108.384 200.265 119.637 201.138 114.539V114.539Z" fill="#7C224F" id="Vector_82"/>
<path d="M201.139 115.486C201.139 115.486 205.775 103.054 208.778 100.763C214.729 96.2226 225.172 90.5242 226.954 89.576C228.737 88.6277 225.357 103.735 222.541 106.533C219.726 109.331 200.267 120.584 201.14 115.486H201.139Z" fill="#4F002F" id="Vector_83"/>
<path d="M122.279 113.25C122.279 113.25 135.807 139.377 142.566 149.253C149.324 159.129 198.323 129.318 202.265 127.436C206.207 125.556 212.966 117.722 212.966 117.722C212.966 117.722 206.207 111.332 210.713 111.169C215.218 111.007 215.782 106.531 215.782 106.531C215.782 106.531 214.655 103.174 205.081 106.531C195.507 109.888 196.633 113.805 194.38 117.162C192.127 120.519 162.559 127.866 156.927 129.752C151.295 131.639 147.06 106.933 139.175 101.897C131.29 96.8611 119.892 101.196 122.279 113.25Z" fill="#F28654" id="Vector_84"/>
<path d="M126.515 127.436C126.515 127.436 115.619 113.797 118.068 101.775C120.516 89.7531 130.109 92.3929 136.935 98.4178C144.226 104.853 151.189 122.051 151.189 122.051C151.189 122.051 140.424 126.877 126.516 127.437L126.515 127.436Z" fill="#9E005D" id="Vector_85"/>
<path d="M124.033 123.863C124.033 123.863 123.98 119.781 126.514 116.793C129.049 113.806 134.962 119.155 140.172 120.328C145.382 121.501 150.259 119.881 150.259 119.881L151.187 122.052C151.187 122.052 138.201 127.982 126.514 127.438L124.033 123.863Z" fill="#F8449D" id="Vector_86"/>
<path d="M140.176 131.712C140.176 131.712 146.503 141.989 149.183 143.463C157.068 147.799 198.639 124.997 199.695 124.263C200.751 123.53 206.981 120.212 206.559 118.041C206.137 115.87 202.335 113.772 204.553 112.408C206.77 111.044 208.882 109.47 210.678 108.841C212.473 108.211 213.001 106.463 213.001 106.463C213.001 106.463 213.001 104.014 205.644 106.451C202.866 107.37 199.563 108.875 198.007 110.565C195.858 112.897 194.977 117.244 192.902 118.353C184.524 122.829 161.019 128.009 158.484 129.269C155.949 130.527 155.131 136.433 155.131 136.433C155.131 136.433 154.164 131.817 154.885 130.663C155.606 129.509 152.773 128.425 151.186 124.158C151.186 124.158 144.123 128.879 140.176 131.712H140.176Z" fill="#FAA88A" id="Vector_87"/>
<path d="M227.05 93.9648C227.05 93.9648 222.721 96.8811 220.921 98.0658C219.677 98.8845 214.721 111.702 214.721 111.702L215.781 111.092C215.781 111.092 220.498 99.2926 221.132 98.8732C221.766 98.4538 226.781 95.2958 226.781 95.2958L227.05 93.9648Z" fill="#F8449D" id="Vector_88"/>
<path d="M224.357 101.961C224.718 101.115 224.533 100.229 223.944 99.9804C223.356 99.7322 222.585 100.217 222.224 101.062C221.863 101.908 222.048 102.795 222.636 103.043C223.225 103.291 223.995 102.807 224.357 101.961Z" fill="#F8449D" id="Vector_89"/>
<path d="M129.4 65.0188C135.314 65.0188 140.108 59.8156 140.108 53.3971C140.108 46.9786 135.314 41.7754 129.4 41.7754C123.486 41.7754 118.691 46.9786 118.691 53.3971C118.691 59.8156 123.486 65.0188 129.4 65.0188Z" fill="#F8449D" id="Vector_90"/>
<path d="M126.917 62.4664C131.407 62.4664 135.047 58.1607 135.047 52.8494C135.047 47.5381 131.407 43.2324 126.917 43.2324C122.427 43.2324 118.787 47.5381 118.787 52.8494C118.787 58.1607 122.427 62.4664 126.917 62.4664Z" fill="#F969B1" id="Vector_91"/>
<path d="M164.499 44.6213C165.264 44.6213 165.884 43.568 165.884 42.2687C165.884 40.9693 165.264 39.916 164.499 39.916C163.734 39.916 163.113 40.9693 163.113 42.2687C163.113 43.568 163.734 44.6213 164.499 44.6213Z" fill="#591708" id="Vector_92"/>
<path d="M154.693 46.9101C155.562 46.9101 156.266 45.7139 156.266 44.2383C156.266 42.7626 155.562 41.5664 154.693 41.5664C153.824 41.5664 153.119 42.7626 153.119 44.2383C153.119 45.7139 153.824 46.9101 154.693 46.9101Z" fill="#591708" id="Vector_93"/>
<path d="M170.193 37.4154C170.193 37.4154 168.045 35.7085 166.13 36.0231C164.214 36.3376 162.815 37.4568 162.64 37.9697C162.464 38.4826 162.863 39.2752 163.882 38.7624C164.901 38.2495 165.94 37.5082 167.446 37.6899C168.952 37.8715 170.437 38.0725 170.193 37.4148V37.4154Z" fill="#F15A24" id="Vector_94"/>
<path d="M158.435 38.4365C158.435 38.4365 159.277 39.927 157.872 39.9163C156.466 39.9056 154.403 38.9787 153.119 39.742C152.098 40.3484 151.066 41.0242 150.644 40.675C150.222 40.325 151.512 38.5193 152.943 38.0265C154.05 37.6458 158.445 37.7453 158.435 38.4365Z" fill="#F15A24" id="Vector_95"/>
<path d="M166.479 51.7129L155.689 54.4529C155.689 54.4529 157.231 61.2745 161.73 59.3398C167.092 57.0346 166.479 51.7129 166.479 51.7129Z" fill="white" id="Vector_96"/>
<path d="M160.238 42.9707C160.238 42.9707 161.91 44.7497 163.591 46.7712C164.082 47.3608 163.72 49.1492 161.869 50.583C161.869 50.583 160.597 50.991 161.552 48.9395C162.144 47.6693 162.398 46.7351 161.834 46.273C160.004 44.7731 160.238 42.9707 160.238 42.9707Z" fill="#F28654" id="Vector_97"/>
<path d="M136.764 14.0089C136.764 14.0089 138.718 14.5672 139.678 14.9064C140.936 15.3512 143.878 12.0155 149.117 11.3871C149.95 11.2869 148.988 10.338 146.874 10.0101C142.959 9.40374 136.764 14.0089 136.764 14.0089Z" fill="#FF7EBD" id="Vector_98" opacity="0.63"/>
<path d="M120.409 188.402C120.409 188.402 128.178 202.829 148.149 202.027C168.12 201.225 183.097 190.082 185.457 182.201C185.457 182.201 188.057 201.702 148.63 206.044C148.63 206.044 121.517 208.216 120.408 188.402L120.409 188.402Z" fill="#F8449D" id="Vector_99"/>
<path d="M154.693 41.5664C154.693 41.5664 152.836 41.5664 152.184 43.9732H153.439L154.693 41.5664Z" fill="#591708" id="Vector_100"/>
<path d="M164.5 39.9167C164.5 39.9167 162.909 40.115 162.6 42.2693L163.789 41.7752L164.5 39.916V39.9167Z" fill="#591708" id="Vector_101"/>
</g>
</g>
</g>
<defs>
<linearGradient gradientUnits="userSpaceOnUse" id="paint0_linear_144_3272" x1="178.013" x2="209.416" y1="76.4148" y2="98.7096">
<stop stop-color="white"/>
<stop offset="0.09" stop-color="#E1F3FA"/>
<stop offset="0.26" stop-color="#A9DDF3"/>
<stop offset="0.44" stop-color="#7BCBED"/>
<stop offset="0.6" stop-color="#57BDE8"/>
<stop offset="0.75" stop-color="#3DB3E4"/>
<stop offset="0.89" stop-color="#2EADE2"/>
<stop offset="1" stop-color="#29ABE2"/>
</linearGradient>
<clipPath id="clip0_144_3272">
<rect fill="white" height="226.257" transform="translate(0.255859)" width="226.743"/>
</clipPath>
</defs>
</svg>